<?xml version="1.0" encoding="UTF-8"?>
<svg id="power_drill" data-name="power drill" xmlns="http://www.w3.org/2000/svg" version="1.1" viewBox="0 0 250 231.35177">
  <defs>
    <style>
      .cls-1 {
        fill: #f5d196;
        stroke-width: 0px;
      }
    </style>
  </defs>
  <path id="path-01" class="cls-1" d="M243.1511,12.15173c-3.79208-6.86801-8.68788-10.65047-13.80377-10.65047l-33.12123.53326c-.011.0002-.01967.00834-.03067.00885l-45.92104.75083c-2.32797-1.84676-4.83171-2.7942-7.46434-2.7942-10.34437.10492-20.4279.42009-30.06981,3.07599-3.74399.46446-7.32464,2.87114-10.40041,6.94597l-31.05441,3.31189c-.04534.00478-.08162.02992-.12523.03928-7.17109.83693-13.00971,10.47798-14.55442,24.15366L2.17118,44.51183c-1.30832.1612-2.22047,1.23341-2.16912,2.54986.05217,1.31726,1.04665,2.31539,2.36557,2.37401l54.3064,2.45196c1.65873,13.41668,7.51885,22.84769,14.60558,23.5858l31.00499,3.27149c3.1637,4.23684,6.86592,6.67527,10.87116,7.07124.01233.00275.0216.01119.03413.01364,6.90647,1.31818,13.47415,2.43028,19.57076,3.3242l.37599,7.26358c.00357.06971.03424.12904.04871.19509-.10077.18155-.20532.36168-.26146.56857l-5.39223,19.87132c-.18912.70015-.07988,1.45404.30079,2.06952.37986.61548,1.00508,1.05186,1.71508,1.1984l8.04147,1.63803c1.41347.28657,2.85547.43149,4.30074.43149.30568,0,.61136-.00651.91705-.01954l4.52012-.19641,6.94173,54.62599c.2853,2.18513-.10108,4.367-1.12002,6.31278l-3.03756,5.81901-4.13088.45469c-6.09326.66922-11.69905,3.86061-15.38027,8.7568l-11.87268,15.78113c-1.06622,1.41659-1.3988,3.20768-.91215,4.9141s1.71589,3.05299,3.37065,3.69616l20.05354,7.78961c1.75339.68061,3.6315,1.02743,5.51042,1.02743.54371,0,1.08741-.02931,1.62704-.08793l64.36761-7.00316c2.91335-.31588,5.06209-2.85272,4.89417-5.77219l-.87221-15.0826c-.69471-9.19266-4.84261-15.66074-12.60937-19.79174l-.57652-4.40425c-.00041-.00305-.00234-.00539-.00275-.00845l-10.41488-79.209c-.61136-4.5917.35541-8.9929,2.75684-12.43993,1.53901-2.2063,4.2127-3.62289,7.1554-3.78734,9.47532-.53,17.60727-.97614,22.24385-1.23015l1.87974-.10258c.00153-.0001.00285-.00102.00438-.00112.00071-.0001.00143.00041.00214.00031,1.30261-.07897,2.0607-.11235,2.16178-.11479,11.57026,0,20.63311-17.43056,20.63311-39.6824,0-11.48984-2.49599-22.60029-6.8489-30.48271ZM229.36689,4.00227c.49235,0,.98409.05414,1.4744.14695.16069.03043.32015.08793.48043.12812.32912.08263.65813.17005.98501.2937.18891.07144.37599.16568.56388.25055.18188.08223.36284.17585.54371.2706l-31.95403.63909c-.46504.00936-.73496.5014-.51487.91061.90665,1.68566,1.54053,3.46535,1.95331,5.32106l-.89972.01048h-.01793c-.67821,0-1.28142-.47382-1.43793-1.13164-.56826-2.39629-1.29283-4.48627-2.19775-6.33272l31.0215-.5068ZM188.70714,4.75209c1.45912,2.33574,2.43404,4.77407,2.96878,7.42244l-1.20041.03765c-.34114-2.07278-.96952-3.90223-1.87291-5.67501-.12991-.25503-.40054-.41378-.68697-.40768l-5.31519.11388c-.28041.006-.45231.29299-.33472.5473.83064,1.79689,1.36436,3.68252,1.70723,5.62514l-1.47074.0461c-.45159-2.5116-1.40532-5.12903-2.74706-7.56735l8.95199-.14247ZM182.10116,12.47494l-.02119.00081c.00652-.00081.01304-.00081.01956-.00081h.00163ZM18.67901,47.71015l-1.03728-.0459c.01549-.52562.00499-1.02621-.06949-1.46411l-12.46152.45612,13.64655-1.7512c.14663.87377.12451,1.80747-.07825,2.80509ZM57.81718,49.44262l-35.83344-1.58613c.16191-1.09541.0806-2.24069-.08101-3.35504l35.96315-4.6148c.00917-.00102.01824.00377.02741.00254l5.40853-.70015.22335-.03908c.73364,0,2.13733,2.05161,2.13733,5.26825,0,3.27851-1.27571,5.28534-1.91398,5.28697l-5.90985-.26622c-.00744-.00031-.01416.00387-.0215.00366ZM73.03962,72.97713c-.27471.04071-.57713.0692-.86651.0692-.13134,0-.26044-.02707-.39117-.03541l-.43458-.046c-.01162-.00102-.02201.00417-.03362.00346-5.65786-.7894-10.57964-9.2755-12.11539-20.96491l.60016.02687c.12655,1.97834.63806,5.84435,2.61134,10.5311,3.81012,9.04938,10.52666,7.63482,10.52666,7.63482-9.96359-.53509-11.13344-14.14218-11.26345-18.08207l2.01923.09037c2.55061,0,4.47437-3.34771,4.47437-7.78635,0-4.34991-2.03217-7.75867-4.78983-7.75867h-.01223l-1.68971.21686c.14031-4.01886,1.34979-17.49009,11.26162-18.02233,0,0-6.71654-1.41455-10.52666,7.63482-2.00731,4.76766-2.5016,8.68322-2.61715,10.629l-.6402.08213c1.54288-12.3115,7.00877-21.40993,13.02062-21.40993.28775,0,.59017.02849.87303.07083.88199.1269,1.74014.43393,2.5665.90338,5.78482,3.28624,10.01617,14.53072,10.01617,27.65391,0,2.81211-.19421,5.53793-.55654,8.11771-1.56988,11.17904-6.29439,19.61497-12.03265,20.44122ZM112.29649,75.1707c-.34868.20007-.70032.38274-1.0546.54404-.14683.06706-.29458.12304-.44212.18338-.29529.12039-.59119.2306-.88801.32413-.14082.04457-.28163.08691-.42255.12538-.3226.08772-.64489.15733-.96667.2132-.11382.01974-.22743.04549-.34124.06126-.4357.06055-.86966.09831-1.29823.10004l-3.80594-.41684c-.03322-.00326-.0648.00478-.09782.00407l-21.41392-2.2641c-.76145-1.48783.11463-3.64334,1.12725-6.09316.13297-.22572.26289-.45642.39188-.69059,3.08963-4.88265,4.3042-4.7935,4.67092.15672l-.05665.32626c-.18361,1.06712.51752,2.08418,1.58598,2.26756l21.61914,3.71824c1.26715-.00621,2.39644-.77404,3.21771-1.70652,5.14656-4.19471,7.55818-14.81964,7.96301-23.93771-.01386.18338-.03454.35618-.04983.53712.22733-4.00237.07876-8.2962-.30833-12.77474-.00886.02442-.01386.05037-.02242.0749-.23415-2.68674-.69583-5.14959-1.40257-7.03155-.04779-.15184-.10291-.30184-.16252-.45225-.01009-.02422-.01793-.05414-.02812-.07816.00041.00254.0001.00458.00051.00712-.55277-1.34922-1.54869-2.55393-2.54643-2.3909l-25.44209,2.13414c-1.1352.08345-1.96992,1.03385-1.88646,2.11756l.10016,1.43389.01671.28352c.08345,1.03374.98491,1.81735,2.03666,1.81735h.15029l17.56682-1.31859c3.66207.38834,5.06545,1.63009,4.75478,3.2664-.44793,2.35895-5.56137,4.22616-17.1411,4.81813l-4.82998-.0632c-.51752.01669-1.05165.18338-1.4524.53356-.40065.36677-.61768.86695-.63439,1.40051l-.00866.2306c-1.00916,3.10907-1.9853,4.6146-2.67258,2.21434.00102-.1439.01029-.28322.01029-.42762,0-3.09075-.22264-6.07088-.63969-8.88136-.9953-6.70763-3.10389-12.43444-5.93114-16.40231-.84786-1.80208-1.43986-3.16646-.99693-4.27205l22.56329-2.39731,2.88401-.32647c.59017,0,1.1729.05964,1.75013.1553.23222.03898.46178.10726.69257.16171.32983.07694.65895.15621.98348.26327.31791.10635.63307.23752.94761.37379.20868.08905.41705.17901.62308.28026.4036.2016.80455.42376,1.20143.67492.08702.05434.17373.1097.26024.16618,5.71095,3.75691,9.98387,12.11367,11.59706,22.04719.05726.35771.11891.71206.16945,1.07435.0647.45815.1181.92211.17149,1.38606.06379.56399.12044,1.13215.16731,1.70581.02975.357.06103.71318.08386,1.07282.06032.96729.10556,1.94252.11626,2.9323.00907.80029-.00295,1.59387-.02721,2.38256-.00897.28657-.02639.5704-.03974.85565-.02221.48176-.04789.962-.08233,1.43827-.02792.3803-.06144.75806-.0971,1.135-.03281.35181-.06949.70158-.10892,1.04982-.05176.45184-.10587.90236-.16874,1.34841-.03036.21798-.06531.43312-.09823.64947-1.11564,7.25595-3.68285,13.66683-7.30396,17.97318-.03852.04569-.07591.09383-.11473.13901-.26431.30917-.53739.60012-.8125.88649-.12737.13189-.25484.26368-.38445.39038-.21775.21422-.43784.41989-.66007.61752-.20623.18247-.41613.35537-.62726.52491-.17587.14166-.35072.2878-.52863.41938-.39688.29207-.79966.56806-1.21254.81362-.07061.04213-.14275.07388-.21357.11439ZM119.08935,57.83886c-.03627.17382-.09283.34244-.15559.50883-.27766.33125-.5759.64978-.90573.94745l-25.77162-3.03864c-.21703-.01659-.41736-.11662-.55094-.28342-.11687-.15-.167-.33349-.15029-.51687l.10016-.86705,27.43402,3.24971ZM92.02266,44.15168v-.36687l28.54395-.04905c-.00336.62719-.05686,1.23046-.16252,1.66978l-27.59685-.52023c-.43407,0-.78458-.33349-.78458-.73363ZM110.14775,70.40233l2.59452,1.06387c-.29855.4436-.71102.82461-1.26002,1.10376l-21.98045-3.79172c-.38394-.06666-.63439-.43353-.56765-.83367l.20032-1.16716,21.01328,3.62492ZM118.77643,30.53584l-26.31971,1.97773c-.45078.03338-.81811-.26673-.85143-.65029l-.01671-.3167,26.86983-2.72185c.18952.61467.30904,1.22262.31801,1.7111ZM113.50618,83.35323c-.00723-.00061-.01335.00275-.02058.00234-.0053-.00031-.00825-.00041-.01365-.00071-.31363-.02442-.62655-.0693-.93875-.12843,8.62114-2.0219,13.86715-12.05403,16.41093-22.49873,2.80616-11.5219,2.18257-21.64247,1.40308-29.2718-.77949-7.62933-5.92452-22.23383-14.03069-24.28941-5.48556-1.39105-8.53555,1.09694-9.7758,2.52442-.21041-.00936-.41399-.0459-.62685-.0459h-.01467c2.26938-2.4139,4.71484-3.81746,7.10812-4.09264.07041,0,.14449-.01465.21775-.02788.00143-.0002.00255.00041.00397.0002.30976-.04315.62033-.05536.93009-.05536,10.21792,0,18.53083,17.47208,18.53083,38.94887,0,21.48575-8.31291,38.96597-18.53083,38.96597-.1989,0-.38557-.01303-.65294-.03094ZM119.69643,84.48895c.04993-.02595.09741-.06269.14724-.08925.47951-.25594.9522-.54028,1.41653-.85881.04381-.03002.08844-.05587.13205-.0864.48206-.33786.95342-.71623,1.41755-1.11902.08783-.07632.17556-.15214.26278-.2307.45394-.4088.89942-.84466,1.3344-1.3135.06766-.07297.13358-.15061.20073-.22501.42581-.47138.84338-.96688,1.24942-1.49383.02985-.03867.06063-.07429.09038-.11327.41787-.54852.82167-1.13297,1.21692-1.73807.07408-.11337.14826-.22602.22152-.34132.38353-.60388.75636-1.23158,1.11645-1.88675.05757-.10472.1131-.2132.17006-.31924.35571-.66209.70134-1.34413,1.03229-2.05456.01814-.03918.0376-.07602.05574-.1153.33747-.73017.65762-1.49098.96769-2.26898.05757-.14441.11545-.28769.172-.43373.29722-.76691.58161-1.55408.85132-2.36353.04636-.13911.09028-.28118.13572-.42141.26696-.82319.52282-1.66205.76023-2.52544.00917-.03338.01936-.06544.02853-.09892.24098-.88211.46138-1.78966.67016-2.71085.03821-.16863.07713-.33603.11422-.50578.19686-.90053.37854-1.81765.5435-2.75207.02965-.16832.05675-.33878.08549-.50812.16272-.96108.31312-1.93417.441-2.92741.00255-.01984.00571-.03908.00825-.05902.12808-1.00148.23242-2.02302.32382-3.05442.01712-.19244.03515-.38376.05095-.57722.08152-1.00138.1455-2.01518.19125-3.04139.00876-.19478.01447-.39109.02191-.58679.04035-1.07282.06756-2.15399.06756-3.25062,0-1.11699-.02782-2.2182-.0698-3.31046-.00713-.18725-.01263-.37531-.02099-.56185-.04687-1.04107-.11341-2.06871-.19706-3.08403-.0163-.19794-.03444-.39394-.05207-.59086-.09272-1.03212-.19951-2.05324-.32912-3.05523-.01111-.08599-.02466-.16964-.03607-.25543-.12859-.96902-.27583-1.92145-.43774-2.85954-.02405-.13932-.04575-.28037-.07051-.41897-.16965-.94928-.35836-1.87871-.56082-2.79288-.03974-.17982-.08019-.35842-.12125-.53682-.20898-.90765-.43142-1.79954-.67168-2.66893-.03403-.12314-.07061-.24251-.10526-.36493-.23915-.84436-.49164-1.6709-.75931-2.47588-.02629-.07897-.05064-.16069-.07713-.23935-.2796-.82797-.57723-1.62816-.88576-2.41105-.05961-.15102-.11871-.30225-.17933-.45164-.30782-.75857-.62787-1.49566-.96198-2.20782-.05951-.1269-.12085-.24943-.18117-.37481-.35102-.72936-.71163-1.44061-1.08925-2.11684-.00346-.00631-.00683-.01313-.01039-.01944-.37966-.67899-.77623-1.32134-1.18115-1.94364-.07061-.10858-.1401-.2191-.21143-.32586-.3927-.58729-.79691-1.14599-1.21131-1.67823-.08141-.10451-.16385-.20567-.24607-.30805-.42755-.53224-.86314-1.04229-1.31178-1.51367-.03994-.04193-.08121-.07948-.12125-.1209-.43386-.44879-.87812-.86481-1.33023-1.25447-.07163-.06167-.14184-.12741-.21388-.18766-.46362-.38732-.93742-.73821-1.41847-1.06122-.09853-.06615-.19727-.13046-.29651-.19387-.48583-.31049-.97839-.59309-1.48021-.83571-.02323-.0113-.04534-.02768-.06868-.03877,7.5858-1.36693,15.48135-1.57697,23.53668-1.65839,2.15689,0,4.2502.84344,6.22205,2.50753,7.09345,5.96677,11.492,21.42876,11.2067,39.38931-.23639,14.50375-3.60949,28.01508-9.02536,36.14826-1.04502,1.58674-2.19276,2.96914-3.41548,4.10974-2.19765,2.05487-4.49311,3.09696-6.67935,3.1051-2.27509-.26541-4.5999-.58048-6.99237-.92892-.00051-.0001-.00112.0002-.00163.0001-.00031,0-.00051-.0001-.00082-.0001-4.55344-.65538-9.39054-1.4402-14.44041-2.34307ZM140.44428,119.83172c-.79059-.06035-1.57783-.16669-2.35477-.32535l-8.04147-1.63803-.25025,1.22608.15162-1.38728,5.39223-19.87214c.01467-.05618.06684-.09525.12553-.09525h9.08608c-.08569,6.41902-1.33766,13.15107-4.10897,22.09197ZM148.8064,100.23222c-.52272,7.04102-1.70142,13.57229-3.6156,19.53224l-2.13784.09291c2.69581-8.84096,3.92241-15.61413,4.00453-22.11761h8.74362c.0701,0,.13368.05455.14021.12131.03587.34672.0482.67573.0808,1.0199h-5.77382c-.76125,0-1.38566.59299-1.4419,1.35125ZM214.38584,205.62745l.75177,13.00433c.09293,1.59081-1.07763,2.97158-2.66391,3.14418l-64.36761,7.00153c-2.01505.22796-4.0725-.0521-5.95957-.78482l-20.05272-7.78961c-.91868-.35659-1.60014-1.10396-1.87077-2.04998-.26982-.94602-.08559-1.94089.50621-2.72734l11.87268-15.78113c.34277-.45561.71448-.88476,1.09332-1.30627,2.12561-1.36367,4.26039-2.1489,6.53028-2.39294,2.23474-.24017,4.64922-.01303,6.741,1.36275.07336.37857.18779.75175.35052,1.112.63256,1.40356,1.85854,2.42611,3.36821,2.80713.77358.19163,1.65944.3517,2.62458.48716,1.64171,1.49698,2.89134,3.78103,1.01874,6.85183l-6.59783,11.95043,8.00468-6.98342c.92703-.80884,2.07792-1.31808,3.30065-1.46045l55.34979-6.44538ZM201.71889,184.28438c-.01172.16659.01111.33206.06389.48777l.94659,7.22613c.01304.14003-.12879.42498-.56572.80273-5.79247,4.99551-39.07835,8.91963-50.87033,6.00015-.75809-.19051-1.37598-.70504-1.69388-1.40845-.31628-.70178-.29345-1.49963.06032-2.18513l2.64629-5.06929c5.86726-.2362,11.7555-.52919,17.668-.88628,2.63844-.15937,4.67296-2.43476,4.49301-5.06858-1.0493-15.36103-3.30595-31.42019-6.22928-47.86473l-12.60407,4.57583.7857,6.12013,11.81837-3.51949v1.9704l-11.43932,4.15309.7856,6.12013,10.65372-3.17267v2.2755l-10.17767,3.69504.7857,6.12013,9.39197-2.79695v2.19042l-9.11003,3.30741.7856,6.12013,8.32443-2.47903v2.06454c0,2.98247-2.05204,5.57405-4.95785,6.26138l-6.72663,1.59112c.30853-1.44692.39555-2.9383.19992-4.43488l-6.34025-49.88988,8.86487-.60368c1.06866-.07286,2.12194.28525,2.92425.99405l5.62699,4.97149-2.46166-10.25755c-.26064-1.08646-1.27449-1.82152-2.38951-1.73268l-4.80318.38285c.13368-.26815.22783-.56124.26421-.87499.80048-6.92826.79722-14.08041-.00652-21.86757-.14021-1.34739-1.27164-2.36424-2.63131-2.36424h-20.21799l-.2961-5.7152c.17383.02442.34929.04284.52282.06696,1.71538.23824,3.42435.46477,5.17672.66331.3656,0,.72946-.02025,1.09149-.05821.12156-.01272.24179-.03908.36295-.05607.23976-.03368.47961-.06533.71754-.11571.14449-.03053.28724-.07541.43111-.11215.21255-.05434.42531-.10523.63623-.1728.15355-.04925.30558-.11215.45832-.16842.1993-.07348.39881-.1439.59659-.22938.15681-.06778.312-.14838.4679-.22368.13623-.06584.27348-.12385.409-.19549l.00326,4.11503s2.37301-5.1561,7.65906-5.28483c4.99993-.12181,11.8792-.31171,15.99531,1.62663,1.80311,1.0772,3.19692,2.46438,4.07321,4.24417l-.24047,2.29076c-.27715,2.742.20868,5.48318,1.40532,7.92801l5.29522,10.81085c.81678,1.64455,1.39717,3.40144,1.72649,5.22021l9.83235,54.02089c.62196,3.41223,3.29963,6.00544,6.61882,6.60037.47411.08497.96147.12924,1.45769.12924h1.25533l.47961,3.66115ZM225.87804,79.99982l-.69614.03826c-.44864.02453-.95729.05241-1.46941.0805v-6.20256c0-.84985-.70195-1.5324-1.55256-1.50981l-35.99229.95864c-2.43333.06483-4.43147,1.9415-4.64534,4.36334l-1.65323,18.71271c-.13216,1.49617.11657,3.0014.72324,4.37575l6.17049,13.97905c.34827.78889.59863,1.61727.74556,2.46692l9.44261,54.58976,3.65116,3.91669.30945,2.35315h-.92764c-2.75847,0-5.11915-1.96694-5.6115-4.678l-9.83235-54.01763c-.37171-2.04998-1.02709-4.02995-1.94495-5.87803l-5.29196-10.80597c-.99122-2.02475-1.39391-4.29943-1.16404-6.5733l1.24769-11.8796c.00815-.03531.01467-.07103.01905-.10685l1.33522-11.17558c.14347-1.2326,1.19501-2.16152,2.47317-2.16152l42.19223-.93381c1.36293,0,2.47154,1.10722,2.47154,2.46763v7.62027ZM246.39795,55.38232l-28.51226-2.43171c-.36774-.03134-.69777.22521-.75758.58902l-.66404,4.04135c-.06093.37124.18025.72509.54849.80436l27.10021,5.83844c-3.29148,9.42948-8.67239,15.59204-14.74588,15.59204-.04402,0-.38149.01303-.9847.04478v-7.48106c0-2.73955-2.23188-4.96864-5.0034-4.96864l-42.19223.93381c-2.52208,0-4.6431,1.88064-4.9333,4.37026l-1.20968,10.13014-2.05907.11652c-7.98481.45021-15.43897.87092-21.29634,1.19067.04514-.05556.08488-.12141.12971-.17758.51762-.64754,1.02077-1.325,1.49703-2.04866,1.41714-2.12753,2.70049-4.59903,3.83223-7.34347,3.39511-8.23311,5.42544-18.92184,5.60885-30.14404v-.00081c.01793-1.13083.0159-2.24863-.00082-3.35595-.0056-.37175-.0217-.73526-.03118-1.10417-.01875-.73201-.03872-1.46289-.07245-2.18309-.02007-.4266-.04911-.84517-.07438-1.2674-.03892-.651-.07907-1.30037-.13022-1.94048-.03515-.43953-.07703-.87204-.11779-1.30627-.05706-.60755-.11697-1.21153-.18504-1.80808-.05013-.43943-.10465-.87346-.16069-1.30678-.07499-.57966-.15467-1.15342-.24016-1.72168-.06389-.42498-.12961-.8469-.1993-1.26516-.09344-.56114-.1936-1.11343-.29733-1.66215-.07673-.40646-.15315-.81301-.23548-1.21234-.11351-.55066-.23588-1.0889-.35989-1.62572-.08641-.3743-.16996-.75216-.26146-1.11943-.1398-.56124-.2904-1.1059-.44171-1.65024-.08967-.32311-.17434-.65354-.26808-.97044-.1937-.65466-.40054-1.28826-.61106-1.91596-.06277-.18725-.11962-.38417-.18382-.56887-.27746-.79775-.56928-1.57087-.87384-2.32099-.09945-.24505-.20756-.47342-.30986-.71318-.21337-.50008-.42734-.99884-.65283-1.47551-.13399-.28332-.27593-.54995-.4142-.82472-.20572-.4089-.41175-.81668-.62675-1.20624-.15478-.28057-.31567-.54699-.47523-.81718-.21163-.35862-.42469-.71318-.64458-1.05328-.16945-.26215-.34308-.51382-.51732-.76477-.22294-.32097-.44884-.63411-.67953-.93625-.18117-.23732-.36447-.46833-.55033-.69374-.10577-.12823-.20603-.2705-.31322-.39485l23.97829-.3918c1.64202,2.61591,2.84437,5.62819,3.31135,8.47613.27552,1.03802,1.00916,1.64129,1.93517,1.64129.05054,0,.10271-.00163.15325-.0057l10.02799-.31344c.59995-.01873,1.16404-.29634,1.54879-.76366.38475-.4665.54941-1.07303.45322-1.66408-.00163-.00651-.00163-.01303-.00326-.01954-.48675-2.70292-1.39493-5.20098-2.72026-7.59127l4.00698-.06544c1.08955,1.92216,1.94842,4.16296,2.58851,6.86374.42877,1.80574,2.01668,3.05544,3.87034,3.05544h.05054l39.25595-.45897c.82269,1.5612,1.57467,3.24035,2.24513,5.03133l-26.67481,1.36621c-.41807.02147-.7261.39913-.66241.8124l.90838,5.89675c.05278.34275.34695.59645.6942.59859l28.22787.17504c.1558.76498.31444,1.52772.44599,2.31051l-28.18589.82991c-.39209.0115-.69981.3398-.68554.73129l.22254,6.11169c.01345.36778.30731.66352.67535.6796l28.92554,1.2672c.03016.82716.06307,1.6536.06664,2.48697l-29.06351-.34153c-.38557-.00448-.70358.30031-.71489.68509l-.17913,6.08492c-.0108.36677.26156.68072.62665.72213l28.65675,3.25205c-.124.90175-.25942,1.79394-.41522,2.66669ZM145.19518,204.23956l-6.84727-3.1458c-1.30913-.5992-2.8514-.17422-3.66818,1.01278l-6.60028,9.63443c-.47931.69852-.63419,1.56965-.42551,2.39029.20786.82064.76054,1.51266,1.51537,1.89855l7.03639,3.59683c.43285.22144.89504.32728,1.34989.32728.97737,0,1.92376-.49011,2.48458-1.371h.00082l6.41198-10.08546c.4573-.71969.58039-1.60058.3391-2.41634-.2421-.81576-.82412-1.4866-1.59688-1.84157ZM135.7109,211.3681l-3.32052-1.49017,4.35576-6.35806c.08641-.12538.2258-.19376.36926-.19376.06277,0,.12635.01303.18667.04071l2.83296,1.30139-4.42413,6.6999ZM80.21265,45.35374c-.46331,13.65115-4.52847,22.55501-10.42497,21.05527-4.9441-1.25763-6.71838-11.10608-6.71838-11.10608,0,0,10.84701,11.54642,10.88838-12.95711.03964-23.5223-10.19337-10.64335-10.19337-10.64335,0,0,1.85335-10.41193,8.10831-10.64324,6.25506-.23142,8.80333,10.64324,8.34002,24.2945ZM77.8321,20.63152c8.84429,12.92027,6.86419,38.10156-1.84805,48.12128,7.65621-14.76601,8.4305-32.35176,1.84805-48.12128ZM68.71901,55.1278c2.14945-7.78585,2.03574-17.91334.66231-24.21034,3.48151,3.48967,2.67838,20.93529-.66231,24.21034ZM109.29052,14.64674l-19.95317,2.48259c-1.04309.13006-1.79557,1.10997-1.65027,2.18584l.10546.87366.10729.84018c.05675.52054.31709.98469.71845,1.30577.30395.26602.69818.4031,1.0816.42274.11667.006.21673.01109.33431.00051l23.80364-2.91958c1.11666-.91101-1.23546-4.90504-4.54732-5.19172ZM89.88085,21.51465c-.16772.00814-.33268-.03368-.47758-.14125-.14408-.12426-.23548-.29604-.25861-.49754l-.10719-.84029,22.71052-2.81527c.35327.52033.54238,1.05532.53596,1.55194l-22.40311,2.7424ZM63.32648,48.2662l-39.10963-1.15352-.02445-1.30923,39.13725-3.90101c.81026,1.79241.72416,4.14271-.00316,6.36376ZM137.10786,84.90802l-10.39491-1.15352c-.26217-.02911-.38282-.33308-.21805-.53885,12.20241-15.24166,14.0526-33.45318,12.16369-52.5641l17.66861-.80212c3.94391,29.54178-6.08103,45.64744-11.67052,52.10829-1.87699,2.16976-4.69537,3.26701-7.54881,2.95031ZM138.0675,26.92577l17.64008-.96271c.10913.5994.21826,1.19881.30915,1.79811l-17.64008.94449c-.09089-.5994-.18178-1.18059-.30915-1.7799ZM137.3038,23.32945l17.6036-.94439c.1455.5993.29091,1.19871.41827,1.79811l-17.6037.94449c-.12727-.5994-.27267-1.19881-.41817-1.79821ZM136.46715,20.09653l17.53105-.96271c.18178.5994.36366,1.19881.5273,1.79811l-17.56733.96271c-.16364-.5994-.30904-1.19871-.49103-1.79811ZM135.52158,16.88163l17.40358-.94449c.21826.5994.41838,1.18059.61839,1.78l-17.47644.92638c-.18188-.5994-.36366-1.18069-.54554-1.76188ZM152.416,14.57489l-17.31269.94449c-.20002-.5994-.40004-1.19871-.61829-1.7799l17.2217-.94449c.2365.58119.47289,1.18059.70928,1.7799ZM151.01567,11.23298l-17.16036,1.04453c-.20002-.5994-.61503-1.35146-1.05603-1.82019l17.37994-1.00423c.29091.58109.56378,1.18049.83645,1.7799ZM143.18604,99.71076c-.30996,5.6629-1.85233,11.78303-4.06098,18.15045.43641-4.38318.82014-8.62389.89738-12.03622.04697-2.07502-.95108-4.02639-2.63936-5.2368l-1.50691-1.08025,7.30987.20282ZM129.82173,7.90105l-2.62846-2.6614c-.26278-.22205-.12278-.65395.21979-.68743,5.68446-.55534,11.09818-.90511,16.00346-.86898.09731.00071.18871.03745.26075.10268,1.32034.78391,2.74788,1.89479,3.57087,2.99366-7.2468-1.99391-13.7297-1.82528-17.42641,1.12147ZM210.07593,24.6976c2.51342,9.35437,2.53532,19.20954.60851,29.4562-.11422.60694-.64662,1.05491-1.26481,1.06824l-10.94218.2361c-.8448.01822-1.46636-.75623-1.28845-1.58115,1.97766-9.17068,1.86843-18.5853-.62125-28.27815-.20919-.81434.3768-1.61341,1.21835-1.63152l10.98691-.23701c.6025-.01303,1.14671.386,1.30292.96729Z"/>
</svg>