<svg version="1.1" id="Layer_1" xmlns="http://www.w3.org/2000/svg" xmlns:xlink="http://www.w3.org/1999/xlink" x="0px" y="0px" viewBox="0 0 250 221.30974" style="enable-background:new 0 0 250 221.30974;" xml:space="preserve"><defs><style> .svg-style-0 {  fill: #f5d196; }</style></defs><path id="path-01" d="M241.57864,190.53606c-10.51498-6.50011-26.6761-2.31584-26.83853-2.27399
	c-0.7653,0.20428-1.58342,0.04085-2.21121-0.44244c-0.62878-0.48331-0.9975-1.22968-0.9975-2.02188V24.75766H0v196.55208h231.61372
	c10.05261,0,18.24577-8.10846,18.38428-18.12819C248.76634,197.48361,245.9353,193.23058,241.57864,190.53606z M59.16374,43.53656
	h35.78902c1.40904,0,2.55102,1.14198,2.55102,2.55102c0,1.40904-1.14198,2.55102-2.55102,2.55102H59.16374
	c-1.40904,0-2.55102-1.14198-2.55102-2.55102C56.61272,44.67854,57.7547,43.53656,59.16374,43.53656z M59.16374,53.79246h27.45785
	c1.40904,0,2.55103,1.14198,2.55103,2.55102c0,1.40898-1.14198,2.55096-2.55103,2.55096H59.16374
	c-1.40904,0-2.55102-1.14198-2.55102-2.55102C56.61272,54.93438,57.7547,53.7924,59.16374,53.79246z M45.58554,154.42915v0.00006
	l-6.43884,7.62418c-0.47931,0.567-1.18233,0.89783-1.92522,0.90482h-0.02392c-0.02049,0-0.03992-0.00598-0.06035-0.00648
	c-0.02186,0.0005-0.04222,0.00648-0.06421,0.00648c-0.99961,0-1.85578-0.58022-2.27418-1.41727l-6.20646-7.07585
	c-0.92923-1.05927-0.8236-2.67059,0.23567-3.60033c1.05977-0.92873,2.6711-0.82309,3.59983,0.23618l2.09413,2.38759V72.3446
	l-2.09413,2.38809c-0.92873,1.05927-2.54006,1.1649-3.59983,0.23617c-1.05927-0.92973-1.1649-2.54105-0.23567-3.60033
	l6.20634-7.07659c0.41834-0.83705,1.27458-1.41751,2.27431-1.41751c0.02716,0,0.05232,0.00697,0.07928,0.00797
	c0.02335-0.001,0.04578-0.00748,0.06919-0.00797c0.74289,0.00697,1.44591,0.33781,1.92522,0.90482l6.43884,7.62516
	c0.9088,1.07721,0.77328,2.68655-0.30343,3.59534c-0.47882,0.40458-1.06326,0.60188-1.64421,0.60188
	c-0.72544,0-1.44591-0.30791-1.95063-0.90482l-2.06324-2.44365v81.32673l2.06324-2.44315
	c0.9093-1.07521,2.51714-1.21274,3.59534-0.30293C46.35882,151.74261,46.49434,153.35295,45.58554,154.42915z M113.93694,200.50995
	c0,1.40904-1.14198,2.55103-2.55102,2.55103H76.90778c-1.40904,0-2.55102-1.14198-2.55102-2.55103v-13.85124
	c0-1.40904,1.14198-2.55101,2.55102-2.55101h34.47814c1.40903,0,2.55102,1.14197,2.55102,2.55101V200.50995z M153.42892,201.26331
	h-27.45734c-1.40904,0-2.55102-1.14198-2.55102-2.55103s1.14198-2.55103,2.55102-2.55103h27.45734
	c1.40904,0,2.55103,1.14198,2.55103,2.55103S154.83797,201.26331,153.42892,201.26331z M161.7606,191.0074h-35.78902
	c-1.40904,0-2.55102-1.14198-2.55102-2.55103c0-1.40903,1.14198-2.55101,2.55102-2.55101h35.78902
	c1.40904,0,2.55103,1.14198,2.55103,2.55101C164.31163,189.86542,163.16965,191.0074,161.7606,191.0074z M183.95654,175.4671
	h-0.00008c-0.00697,0.74239-0.3378,1.44591-0.90482,1.92523l-7.62416,6.43933c-0.47931,0.40457-1.06325,0.60188-1.6452,0.60188
	c-0.72446,0-1.44492-0.30792-1.95013-0.90482c-0.9088-1.07622-0.77328-2.68555,0.30293-3.59535l2.44353-2.06374H64.09028
	l2.44352,2.06374c1.07622,0.90981,1.21174,2.51913,0.303,3.59535c-0.50472,0.59689-1.22519,0.90482-1.95064,0.90482
	c-0.58145,0-1.1654-0.19731-1.64471-0.60188l-7.62416-6.43933c-0.5675-0.47932-0.89784-1.18285-0.90482-1.92523
	c-0.00025-0.02541,0.00685-0.04958,0.00741-0.07474c-0.00075-0.02516-0.00741-0.04857-0.00741-0.07373
	c0-0.99899,0.57959-1.85472,1.41589-2.2735l7.07715-6.20766c1.05933-0.92773,2.6716-0.8231,3.59983,0.23618
	c0.92923,1.05927,0.8236,2.67059-0.23567,3.60033l-2.38722,2.09363H174.4865l-2.38722-2.09363
	c-1.05927-0.92973-1.1649-2.54106-0.23618-3.60033c0.92874-1.05928,2.54106-1.1649,3.60033-0.23618l7.0771,6.20766
	c0.83636,0.41852,1.41602,1.27451,1.41602,2.2735c0,0.02516-0.00667,0.04857-0.00742,0.07349
	C183.94962,175.41753,183.95679,175.4417,183.95654,175.4671z M184.06316,154.39827h-0.00006
	c0,1.40904-1.14198,2.55103-2.55101,2.55103H57.15681c-1.40904,0-2.55102-1.14198-2.55102-2.55103v-37.00175
	c0-1.40904,1.14198-2.55103,2.55102-2.55103h19.57167V71.4353c0-1.40903,1.14198-2.55102,2.55102-2.55102h102.23265
	c1.40903,0,2.55101,1.14198,2.55101,2.55102V154.39827z M147.20085,73.98632h31.76021v77.86092h-37.81004
	c-1.15468-9.8147-9.51089-17.45854-19.63077-17.45854c-1.40904,0-2.55102,1.14198-2.55102,2.55103v14.90752H81.83046v-8.78508
	c0-1.40903-1.14198-2.55101-2.55103-2.55101c-1.40903,0-2.55102,1.14198-2.55102,2.55101v8.78508H59.70783v-31.89971h17.02059v9.09
	c0,1.40904,1.14198,2.55103,2.55102,2.55103c1.40904,0,2.55103-1.14198,2.55103-2.55103v-22.35033h33.98885v4.31083
	c0,1.40903,1.14198,2.55102,2.55103,2.55102c1.40903,0,2.55102-1.14198,2.55102-2.55102V86.98357h2.06274
	c1.40904,0,2.55103-1.14198,2.55103-2.55102c0-1.40904-1.14198-2.55103-2.55103-2.55103h-9.22652
	c-1.40904,0-2.55103,1.14198-2.55103,2.55103c0,1.40903,1.14198,2.55102,2.55103,2.55102h2.06174v14.6016H81.83046V73.98632
	h60.26836v40.85917h-5.07214c-1.40904,0-2.55103,1.14198-2.55103,2.55103s1.14198,2.55102,2.55103,2.55102h24.55457v2.06174
	c0,1.40904,1.14198,2.55102,2.55101,2.55102c1.40904,0,2.55103-1.14198,2.55103-2.55102v-9.22652
	c0-1.40904-1.14198-2.55102-2.55103-2.55102c-1.40903,0-2.55101,1.14198-2.55101,2.55102v2.06274h-14.38039V73.98632z M250,13.65275
	v177.58092c-1.59738-1.98103-3.51862-3.6671-5.75673-5.04823c-5.57936-3.44289-12.21899-4.40649-17.90797-4.40649
	c-3.89629,0-7.34714,0.45241-9.70184,0.86993V1.27831C222.62935-0.21742,242.01311-3.51588,250,13.65275z" class="svg-style-0"/></svg>