<?xml version="1.0" encoding="utf-8"?>
<!-- Generator: Adobe Illustrator 28.3.0, SVG Export Plug-In . SVG Version: 6.00 Build 0)  -->
<svg version="1.1" id="Layer_1" xmlns="http://www.w3.org/2000/svg" xmlns:xlink="http://www.w3.org/1999/xlink" x="0px" y="0px"
	 viewBox="0 0 250 127.20755" style="enable-background:new 0 0 250 127.20755;" xml:space="preserve">
	 <defs>
    <style>
      .cls-1 {
        fill: #f5d196;
        stroke-width: 0px;
      }
    </style>
  </defs>
<path id="path-01" class="cls-1" d="M244.32286,53.0811l-9.2944-8.94735c-4.13403-3.97367-9.87842-6.1618-16.17522-6.1618h-29.93211
	l1.41031-7.37243c0.76688-4.01054-0.13116-7.81619-2.52945-10.71614c-2.4203-2.92676-6.03734-4.53854-10.18478-4.53854h-23.06656
	c-1.35376,0-2.45094,1.09718-2.45094,2.45094c0,1.35376,1.09718,2.45094,2.45094,2.45094h23.06656
	c2.65965,0,4.93538,0.98037,6.40691,2.76065c1.45045,1.75347,1.98085,4.12303,1.49353,6.67162l-1.9593,10.24223
	c-0.00121,0.00592-0.00221,0.01185-0.00342,0.01777l-2.46858,12.90421H67.89415l4.25479-22.2432
	c1.09191-5.70896,6.75156-10.35329,12.61562-10.35329h10.15463c1.35375,0,2.45094-1.09718,2.45094-2.45094
	c0-1.35376-1.09718-2.45094-2.45094-2.45094H84.76456c-8.23648,0-15.8923,6.29632-17.43037,14.33414l-4.80158,25.1018
	c-0.00317,0.01484-0.00562,0.0298-0.00856,0.04476l-1.14989,6.01143H45.8301c-1.35376,0-2.45094,1.09718-2.45094,2.45094
	s1.09718,2.45094,2.45094,2.45094h14.6064l-2.06205,10.78017c-0.00329,0.01556-0.00599,0.03123-0.00898,0.04685L55.03643,93.9696
	c-0.7363,3.84993,0.0757,7.50138,2.25952,10.35329H2.45094C1.09718,104.32289,0,105.42007,0,106.77383
	s1.09718,2.45094,2.45094,2.45094h70.18843c-0.2038,4.41504,1.07779,8.52317,3.77047,11.77982
	c3.30733,4,8.26616,6.20297,13.96268,6.20297c10.59916,0,20.8518-7.90074,23.80663-17.98279h71.09676
	c-0.2041,4.41486,1.07732,8.52239,3.77071,11.77982c3.30782,4,8.26617,6.20297,13.96268,6.20297
	c10.59917,0,20.85132-7.90074,23.80579-17.98279h4.45082c6.18192,0,11.92917-4.72762,13.08282-10.76209l5.23888-27.38825
	C250.91742,64.12563,248.99687,57.56651,244.32286,53.0811z M65.80158,63.78283c0.00018-0.00066,0.0003-0.00144,0.00042-0.00209
	l1.1545-6.03567h113.19212l-3.22092,16.83726H63.73582L65.80158,63.78283z M109.84788,106.31619
	c-1.68694,8.81667-10.42366,15.98949-19.47536,15.98949c-4.20872,0-7.82577-1.57109-10.18479-4.42509
	c-2.32336-2.80942-3.17981-6.57731-2.41611-10.61244c0.00006-0.00053,0.00011-0.00108,0.00024-0.00162
	c0.00185-0.00987,0.00227-0.01944,0.00419-0.02932c1.68645-8.81762,10.42318-15.99044,19.47536-15.99044
	c4.20824,0,7.82529,1.57109,10.18431,4.42509C109.76554,98.48947,110.62193,102.26928,109.84788,106.31619z M160.5966,104.32289
	h-45.61182c0.20237-4.41294-1.07928-8.51897-3.77119-11.77502c-3.30733-4-8.26617-6.20297-13.9622-6.20297
	c-10.5976,0-20.84827,7.89858-23.80525,17.978h-5.70171c-2.65821,0-4.93155-0.97942-6.40211-2.7573
	c-1.4495-1.75395-1.97942-4.12447-1.49114-6.67497l2.94698-15.40643h113.19183l-2.77107,14.48541
	C172.12749,99.67856,166.46544,104.32289,160.5966,104.32289z M222.48465,106.31619
	c-1.68694,8.81667-10.42319,15.98949-19.47537,15.98949c-4.20871,0-7.82576-1.57109-10.18478-4.42509
	c-2.32283-2.80972-3.17975-6.57653-2.41743-10.60957c0.00108-0.00526,0.00121-0.01071,0.00229-0.01598
	c0.00113-0.00599,0.00137-0.01185,0.0025-0.01784c1.68694-8.81762,10.42413-15.99044,19.47632-15.99044
	c4.20776,0,7.82481,1.57109,10.18384,4.42509C222.40135,98.48852,223.25822,102.26928,222.48465,106.31619z M244.7738,70.1534
	l-5.23888,27.38824c-0.70369,3.67545-4.49019,6.78124-8.26904,6.78124h-3.64505c0.20279-4.4133-1.07863-8.51891-3.77094-11.77502
	c-3.30782-4-8.26617-6.20297-13.96173-6.20297c-10.59802,0-20.84874,7.89858-23.80536,17.978h-13.41409
	c2.70117-2.50467,4.66713-5.78489,5.364-9.43227l9.9507-52.0168h30.86983c5.02345,0,9.56247,1.70273,12.77742,4.79273
	l9.29536,8.94879C244.38222,59.93224,245.78481,64.86666,244.7738,70.1534z M229.61246,54.11174
	c-2.37051-2.32599-5.66875-3.60699-9.2877-3.60699h-11.21207c-3.83438,0-7.39876,2.93442-8.11586,6.68119l-2.81091,14.69652
	c-0.37338,1.9483,0.09383,3.88895,1.28195,5.326c1.19579,1.44662,3.03207,2.27573,5.03879,2.27573h26.64243
	c3.83534,0,7.39972-2.93442,8.1149-6.68072l0.8224-4.29871c0.42221-2.20202-0.20009-4.31212-1.70607-5.78986L229.61246,54.11174z
	 M235.2726,67.58279l-0.82336,4.30062c-0.27382,1.43801-1.81618,2.69891-3.30016,2.69891h-26.64243
	c-0.54764,0-0.9957-0.17616-1.26089-0.49689c-0.26041-0.31594-0.34563-0.75922-0.24605-1.28196l2.81091-14.69604
	c0.27573-1.43897,1.81905-2.70082,3.30206-2.70082h11.21207c2.32648,0,4.40594,0.78267,5.85449,2.20441l8.76784,8.60269
	C235.37695,66.63593,235.33578,67.25249,235.2726,67.58279z M207.85179,96.99019c-5.35472,0-10.33414,4.0967-11.33463,9.326
	c-0.51315,2.68071,0.09575,5.23409,1.71375,7.19005c1.60651,1.94256,4.09,3.05697,6.81476,3.05697
	c5.35471,0,10.33414-4.0967,11.33461-9.326c0.51317-2.68071-0.09573-5.23409-1.71373-7.19005
	C213.06003,98.1046,210.57654,96.99019,207.85179,96.99019z M211.5665,106.31619c-0.5553,2.89708-3.54141,5.34515-6.52083,5.34515
	c-1.27621,0-2.35521-0.4538-3.03687-1.27908c-0.67018-0.809-0.91049-1.92628-0.67784-3.14505
	c0.55528-2.89708,3.54141-5.34515,6.52083-5.34515c1.27621,0,2.35519,0.45381,3.03687,1.27908
	C211.55884,103.98015,211.79913,105.09743,211.5665,106.31619z M95.21502,96.99019c-5.35567,0-10.33462,4.0967-11.3351,9.326
	c-0.51269,2.67976,0.09622,5.23313,1.71375,7.19005c1.60651,1.94256,4.09048,3.05697,6.81475,3.05697
	c5.35567,0,10.33462-4.0967,11.3351-9.326c0.51268-2.67975-0.09622-5.23312-1.71375-7.19005
	C100.42326,98.1046,97.93929,96.99019,95.21502,96.99019z M98.92876,106.31619c-0.55434,2.89708-3.53998,5.34515-6.52035,5.34515
	c-1.2767,0-2.3552-0.4538-3.03687-1.27908c-0.6697-0.80996-0.91-1.92628-0.67688-3.14505
	c0.55433-2.89708,3.53997-5.34515,6.52035-5.34515c1.27669,0,2.3552,0.45381,3.03687,1.27908
	C98.92159,103.9811,99.16189,105.09743,98.92876,106.31619z M50.92776,92.27884c0,1.35376-1.09718,2.45094-2.45094,2.45094h-5.74007
	c-1.35376,0-2.45094-1.09718-2.45094-2.45094s1.09718-2.45094,2.45094-2.45094h5.74007
	C49.83059,89.8279,50.92776,90.92508,50.92776,92.27884z M12.74774,92.27884c0-1.35376,1.09718-2.45094,2.45094-2.45094h17.69604
	c1.35376,0,2.45094,1.09718,2.45094,2.45094s-1.09718,2.45094-2.45094,2.45094H15.19867
	C13.84491,94.72977,12.74774,93.6326,12.74774,92.27884z M26.10342,77.7829c0-1.35376,1.09718-2.45094,2.45094-2.45094h19.92247
	c1.35376,0,2.45094,1.09718,2.45094,2.45094s-1.09718,2.45094-2.45094,2.45094H28.55436
	C27.2006,80.23383,26.10342,79.13666,26.10342,77.7829z M98.69994,31.29889l15.38728-13.50312L98.69994,4.29264
	c-1.01723-0.89277-1.11824-2.44136-0.22546-3.4586c0.89182-1.01676,2.44088-1.11824,3.4586-0.22547l17.48637,15.34515
	c0.5304,0.46529,0.83437,1.13643,0.83437,1.84203c0,0.7056-0.30398,1.37674-0.83437,1.84203l-17.48637,15.34516
	c-0.46529,0.40833-1.04165,0.6089-1.61561,0.6089c-0.68118,0-1.35854-0.28195-1.84299-0.83437
	C97.5817,33.74025,97.68271,32.19167,98.69994,31.29889z M125.20261,31.29889l15.38728-13.50312L125.20261,4.29264
	c-1.01676-0.89277-1.11777-2.44136-0.22499-3.4586c0.89421-1.01723,2.44232-1.1168,3.45908-0.22547l17.48589,15.34515
	c0.52945,0.46529,0.83389,1.13643,0.83389,1.84203c0,0.7056-0.30444,1.37674-0.83389,1.84203l-17.48589,15.34516
	c-0.46529,0.40833-1.04165,0.6089-1.61609,0.6089c-0.68071,0-1.35854-0.28243-1.84299-0.83437
	C124.08484,33.74025,124.18584,32.19167,125.20261,31.29889z"/>
</svg>
